<?xml version="1.0" encoding="UTF-8"?>
<svg xmlns="http://www.w3.org/2000/svg" xmlns:xlink="http://www.w3.org/1999/xlink" width="16px" height="16px" viewBox="0 0 16 16" version="1.1">
<defs>
<clipPath id="clip1">
  <path d="M 3.414062 1.601562 L 12.597656 1.601562 L 12.597656 9.632812 L 3.414062 9.632812 Z M 3.414062 1.601562 "/>
</clipPath>
<clipPath id="clip2">
  <path d="M 1.601562 8 L 4.574219 8 L 4.574219 10.976562 L 1.601562 10.976562 Z M 1.601562 8 "/>
</clipPath>
<clipPath id="clip3">
  <path d="M 1.601562 10.515625 L 4.671875 10.515625 L 4.671875 14.289062 L 1.601562 14.289062 Z M 1.601562 10.515625 "/>
</clipPath>
<clipPath id="clip4">
  <path d="M 11.320312 8.097656 L 14.296875 8.097656 L 14.296875 11.074219 L 11.320312 11.074219 Z M 11.320312 8.097656 "/>
</clipPath>
<clipPath id="clip5">
  <path d="M 11.320312 10.609375 L 14.394531 10.609375 L 14.394531 14.386719 L 11.320312 14.386719 Z M 11.320312 10.609375 "/>
</clipPath>
</defs>
<g id="surface1">
<g clip-path="url(#clip1)" clip-rule="nonzero">
<path style=" stroke:none;fill-rule:nonzero;fill:rgb(96.862745%,70.196078%,80.392157%);fill-opacity:1;" d="M 3.777344 2.882812 C 3.035156 4.109375 3.558594 5.300781 4.21875 5.933594 L 8.074219 9.632812 L 11.847656 5.949219 C 12.460938 5.265625 12.695312 4.542969 12.5625 3.738281 C 12.382812 2.625 11.464844 1.761719 10.332031 1.640625 C 9.636719 1.566406 8.964844 1.761719 8.441406 2.195312 C 8.300781 2.3125 8.171875 2.445312 8.0625 2.585938 C 7.933594 2.425781 7.78125 2.277344 7.605469 2.144531 C 7.003906 1.6875 6.238281 1.503906 5.5 1.648438 C 4.800781 1.78125 4.175781 2.230469 3.777344 2.882812 "/>
</g>
<path style=" stroke:none;fill-rule:nonzero;fill:rgb(100%,100%,100%);fill-opacity:1;" d="M 6.066406 6.128906 C 6.035156 6.128906 6.003906 6.117188 5.980469 6.09375 C 5.953125 6.066406 5.941406 6.039062 5.941406 6.003906 L 5.941406 5.324219 L 5.304688 4.433594 C 5.289062 4.40625 5.285156 4.382812 5.285156 4.359375 C 5.285156 4.328125 5.296875 4.296875 5.320312 4.273438 C 5.339844 4.246094 5.371094 4.234375 5.402344 4.234375 C 5.449219 4.234375 5.488281 4.253906 5.511719 4.296875 L 6.066406 5.105469 L 6.621094 4.296875 C 6.648438 4.253906 6.683594 4.234375 6.730469 4.234375 C 6.765625 4.234375 6.792969 4.246094 6.816406 4.269531 C 6.839844 4.292969 6.851562 4.324219 6.851562 4.355469 C 6.851562 4.375 6.84375 4.402344 6.832031 4.433594 L 6.191406 5.324219 L 6.191406 6.003906 C 6.191406 6.039062 6.179688 6.066406 6.15625 6.09375 C 6.128906 6.117188 6.101562 6.128906 6.066406 6.128906 Z M 6.066406 6.128906 "/>
<path style=" stroke:none;fill-rule:nonzero;fill:rgb(100%,100%,100%);fill-opacity:1;" d="M 8 6.140625 C 7.820312 6.140625 7.660156 6.101562 7.519531 6.023438 C 7.378906 5.945312 7.265625 5.832031 7.183594 5.6875 C 7.101562 5.542969 7.0625 5.375 7.0625 5.179688 C 7.0625 4.988281 7.101562 4.816406 7.183594 4.671875 C 7.265625 4.527344 7.375 4.417969 7.515625 4.339844 C 7.660156 4.261719 7.820312 4.222656 8 4.222656 C 8.117188 4.222656 8.222656 4.234375 8.316406 4.261719 C 8.410156 4.289062 8.507812 4.328125 8.605469 4.386719 C 8.648438 4.40625 8.667969 4.441406 8.667969 4.492188 C 8.667969 4.515625 8.65625 4.542969 8.636719 4.5625 C 8.617188 4.585938 8.589844 4.59375 8.558594 4.59375 C 8.539062 4.59375 8.523438 4.589844 8.511719 4.585938 C 8.429688 4.542969 8.351562 4.511719 8.277344 4.488281 C 8.199219 4.46875 8.117188 4.457031 8.023438 4.457031 C 7.871094 4.457031 7.742188 4.488281 7.636719 4.550781 C 7.53125 4.613281 7.449219 4.699219 7.394531 4.808594 C 7.339844 4.914062 7.308594 5.039062 7.308594 5.179688 C 7.308594 5.324219 7.335938 5.445312 7.394531 5.550781 C 7.449219 5.664062 7.53125 5.75 7.636719 5.8125 C 7.746094 5.875 7.875 5.902344 8.023438 5.902344 C 8.117188 5.902344 8.199219 5.894531 8.277344 5.875 C 8.351562 5.851562 8.429688 5.820312 8.511719 5.777344 C 8.523438 5.773438 8.539062 5.769531 8.558594 5.769531 C 8.589844 5.769531 8.617188 5.777344 8.636719 5.796875 C 8.65625 5.820312 8.667969 5.84375 8.667969 5.871094 C 8.667969 5.921875 8.648438 5.953125 8.605469 5.976562 C 8.507812 6.03125 8.410156 6.074219 8.316406 6.101562 C 8.222656 6.128906 8.117188 6.140625 8 6.140625 Z M 8 6.140625 "/>
<path style=" stroke:none;fill-rule:nonzero;fill:rgb(100%,100%,100%);fill-opacity:1;" d="M 9.148438 6.128906 C 9.117188 6.128906 9.085938 6.117188 9.0625 6.09375 C 9.039062 6.066406 9.027344 6.039062 9.027344 6.003906 L 9.027344 4.359375 C 9.027344 4.328125 9.039062 4.296875 9.0625 4.273438 C 9.085938 4.246094 9.117188 4.234375 9.148438 4.234375 C 9.183594 4.234375 9.214844 4.246094 9.238281 4.273438 C 9.261719 4.296875 9.277344 4.328125 9.277344 4.359375 L 9.277344 5.066406 L 10.28125 5.066406 L 10.28125 4.359375 C 10.28125 4.328125 10.292969 4.296875 10.316406 4.273438 C 10.339844 4.246094 10.371094 4.234375 10.402344 4.234375 C 10.4375 4.234375 10.464844 4.246094 10.492188 4.273438 C 10.515625 4.296875 10.527344 4.328125 10.527344 4.359375 L 10.527344 6.003906 C 10.527344 6.039062 10.515625 6.066406 10.492188 6.09375 C 10.464844 6.117188 10.4375 6.128906 10.402344 6.128906 C 10.371094 6.128906 10.339844 6.117188 10.316406 6.09375 C 10.292969 6.066406 10.28125 6.039062 10.28125 6.003906 L 10.28125 5.296875 L 9.277344 5.296875 L 9.277344 6.003906 C 9.277344 6.039062 9.261719 6.066406 9.238281 6.09375 C 9.214844 6.117188 9.183594 6.128906 9.148438 6.128906 Z M 9.148438 6.128906 "/>
<g clip-path="url(#clip2)" clip-rule="nonzero">
<path style=" stroke:none;fill-rule:nonzero;fill:rgb(96.862745%,70.196078%,80.392157%);fill-opacity:1;" d="M 3.089844 8 C 2.265625 8 1.601562 8.667969 1.601562 9.488281 C 1.601562 10.308594 2.265625 10.976562 3.089844 10.976562 C 3.910156 10.976562 4.574219 10.308594 4.574219 9.488281 C 4.574219 8.667969 3.910156 8 3.089844 8 "/>
</g>
<g clip-path="url(#clip3)" clip-rule="nonzero">
<path style=" stroke:none;fill-rule:nonzero;fill:rgb(96.862745%,70.196078%,80.392157%);fill-opacity:1;" d="M 2.625 10.601562 C 2.78125 10.550781 2.960938 10.515625 3.136719 10.515625 C 3.3125 10.515625 3.480469 10.542969 3.636719 10.597656 C 3.640625 10.597656 3.644531 10.597656 3.648438 10.601562 C 4.234375 10.816406 4.664062 11.378906 4.671875 12.039062 L 4.671875 14.289062 L 1.601562 14.289062 L 1.601562 12.042969 C 1.609375 11.375 2.03125 10.8125 2.625 10.601562 "/>
</g>
<g clip-path="url(#clip4)" clip-rule="nonzero">
<path style=" stroke:none;fill-rule:nonzero;fill:rgb(96.862745%,70.196078%,80.392157%);fill-opacity:1;" d="M 12.808594 8.097656 C 11.988281 8.097656 11.320312 8.761719 11.320312 9.585938 C 11.320312 10.40625 11.988281 11.074219 12.808594 11.074219 C 13.628906 11.074219 14.296875 10.40625 14.296875 9.585938 C 14.296875 8.761719 13.628906 8.097656 12.808594 8.097656 "/>
</g>
<g clip-path="url(#clip5)" clip-rule="nonzero">
<path style=" stroke:none;fill-rule:nonzero;fill:rgb(96.862745%,70.196078%,80.392157%);fill-opacity:1;" d="M 12.34375 10.699219 C 12.503906 10.644531 12.683594 10.609375 12.859375 10.609375 C 13.035156 10.609375 13.203125 10.640625 13.359375 10.695312 C 13.363281 10.695312 13.363281 10.695312 13.367188 10.699219 C 13.953125 10.910156 14.382812 11.476562 14.394531 12.136719 L 14.394531 14.386719 L 11.320312 14.386719 L 11.320312 12.136719 C 11.328125 11.472656 11.753906 10.90625 12.34375 10.699219 "/>
</g>
</g>
</svg>
